%TF.GenerationSoftware,KiCad,Pcbnew,(6.0.5-0)*%
%TF.CreationDate,2023-01-06T19:30:00-05:00*%
%TF.ProjectId,Single_Li_Cell_Charger,53696e67-6c65-45f4-9c69-5f43656c6c5f,rev?*%
%TF.SameCoordinates,Original*%
%TF.FileFunction,Legend,Top*%
%TF.FilePolarity,Positive*%
%FSLAX46Y46*%
G04 Gerber Fmt 4.6, Leading zero omitted, Abs format (unit mm)*
G04 Created by KiCad (PCBNEW (6.0.5-0)) date 2023-01-06 19:30:00*
%MOMM*%
%LPD*%
G01*
G04 APERTURE LIST*
%ADD10C,0.150000*%
%ADD11C,0.125000*%
%ADD12C,0.130000*%
%ADD13C,0.120000*%
%ADD14C,0.127000*%
%ADD15C,0.200000*%
G04 APERTURE END LIST*
D10*
X18772809Y-31440380D02*
X18296619Y-31440380D01*
X18296619Y-30440380D01*
X19106142Y-31440380D02*
X19106142Y-30773714D01*
X19106142Y-30440380D02*
X19058523Y-30488000D01*
X19106142Y-30535619D01*
X19153761Y-30488000D01*
X19106142Y-30440380D01*
X19106142Y-30535619D01*
X19582333Y-31059428D02*
X20344238Y-31059428D01*
X20820428Y-31440380D02*
X20820428Y-30440380D01*
X21439476Y-31440380D02*
X21344238Y-31392761D01*
X21296619Y-31345142D01*
X21249000Y-31249904D01*
X21249000Y-30964190D01*
X21296619Y-30868952D01*
X21344238Y-30821333D01*
X21439476Y-30773714D01*
X21582333Y-30773714D01*
X21677571Y-30821333D01*
X21725190Y-30868952D01*
X21772809Y-30964190D01*
X21772809Y-31249904D01*
X21725190Y-31345142D01*
X21677571Y-31392761D01*
X21582333Y-31440380D01*
X21439476Y-31440380D01*
X22201380Y-30773714D02*
X22201380Y-31440380D01*
X22201380Y-30868952D02*
X22249000Y-30821333D01*
X22344238Y-30773714D01*
X22487095Y-30773714D01*
X22582333Y-30821333D01*
X22629952Y-30916571D01*
X22629952Y-31440380D01*
X24439476Y-31345142D02*
X24391857Y-31392761D01*
X24249000Y-31440380D01*
X24153761Y-31440380D01*
X24010904Y-31392761D01*
X23915666Y-31297523D01*
X23868047Y-31202285D01*
X23820428Y-31011809D01*
X23820428Y-30868952D01*
X23868047Y-30678476D01*
X23915666Y-30583238D01*
X24010904Y-30488000D01*
X24153761Y-30440380D01*
X24249000Y-30440380D01*
X24391857Y-30488000D01*
X24439476Y-30535619D01*
X24868047Y-31440380D02*
X24868047Y-30440380D01*
X25296619Y-31440380D02*
X25296619Y-30916571D01*
X25249000Y-30821333D01*
X25153761Y-30773714D01*
X25010904Y-30773714D01*
X24915666Y-30821333D01*
X24868047Y-30868952D01*
X26201380Y-31440380D02*
X26201380Y-30916571D01*
X26153761Y-30821333D01*
X26058523Y-30773714D01*
X25868047Y-30773714D01*
X25772809Y-30821333D01*
X26201380Y-31392761D02*
X26106142Y-31440380D01*
X25868047Y-31440380D01*
X25772809Y-31392761D01*
X25725190Y-31297523D01*
X25725190Y-31202285D01*
X25772809Y-31107047D01*
X25868047Y-31059428D01*
X26106142Y-31059428D01*
X26201380Y-31011809D01*
X26677571Y-31440380D02*
X26677571Y-30773714D01*
X26677571Y-30964190D02*
X26725190Y-30868952D01*
X26772809Y-30821333D01*
X26868047Y-30773714D01*
X26963285Y-30773714D01*
X27725190Y-30773714D02*
X27725190Y-31583238D01*
X27677571Y-31678476D01*
X27629952Y-31726095D01*
X27534714Y-31773714D01*
X27391857Y-31773714D01*
X27296619Y-31726095D01*
X27725190Y-31392761D02*
X27629952Y-31440380D01*
X27439476Y-31440380D01*
X27344238Y-31392761D01*
X27296619Y-31345142D01*
X27249000Y-31249904D01*
X27249000Y-30964190D01*
X27296619Y-30868952D01*
X27344238Y-30821333D01*
X27439476Y-30773714D01*
X27629952Y-30773714D01*
X27725190Y-30821333D01*
X28582333Y-31392761D02*
X28487095Y-31440380D01*
X28296619Y-31440380D01*
X28201380Y-31392761D01*
X28153761Y-31297523D01*
X28153761Y-30916571D01*
X28201380Y-30821333D01*
X28296619Y-30773714D01*
X28487095Y-30773714D01*
X28582333Y-30821333D01*
X28629952Y-30916571D01*
X28629952Y-31011809D01*
X28153761Y-31107047D01*
X29058523Y-31440380D02*
X29058523Y-30773714D01*
X29058523Y-30964190D02*
X29106142Y-30868952D01*
X29153761Y-30821333D01*
X29249000Y-30773714D01*
X29344238Y-30773714D01*
X19415619Y-29868761D02*
X19558476Y-29916380D01*
X19796571Y-29916380D01*
X19891809Y-29868761D01*
X19939428Y-29821142D01*
X19987047Y-29725904D01*
X19987047Y-29630666D01*
X19939428Y-29535428D01*
X19891809Y-29487809D01*
X19796571Y-29440190D01*
X19606095Y-29392571D01*
X19510857Y-29344952D01*
X19463238Y-29297333D01*
X19415619Y-29202095D01*
X19415619Y-29106857D01*
X19463238Y-29011619D01*
X19510857Y-28964000D01*
X19606095Y-28916380D01*
X19844190Y-28916380D01*
X19987047Y-28964000D01*
X20415619Y-29916380D02*
X20415619Y-29249714D01*
X20415619Y-28916380D02*
X20368000Y-28964000D01*
X20415619Y-29011619D01*
X20463238Y-28964000D01*
X20415619Y-28916380D01*
X20415619Y-29011619D01*
X20891809Y-29249714D02*
X20891809Y-29916380D01*
X20891809Y-29344952D02*
X20939428Y-29297333D01*
X21034666Y-29249714D01*
X21177523Y-29249714D01*
X21272761Y-29297333D01*
X21320380Y-29392571D01*
X21320380Y-29916380D01*
X22225142Y-29249714D02*
X22225142Y-30059238D01*
X22177523Y-30154476D01*
X22129904Y-30202095D01*
X22034666Y-30249714D01*
X21891809Y-30249714D01*
X21796571Y-30202095D01*
X22225142Y-29868761D02*
X22129904Y-29916380D01*
X21939428Y-29916380D01*
X21844190Y-29868761D01*
X21796571Y-29821142D01*
X21748952Y-29725904D01*
X21748952Y-29440190D01*
X21796571Y-29344952D01*
X21844190Y-29297333D01*
X21939428Y-29249714D01*
X22129904Y-29249714D01*
X22225142Y-29297333D01*
X22844190Y-29916380D02*
X22748952Y-29868761D01*
X22701333Y-29773523D01*
X22701333Y-28916380D01*
X23606095Y-29868761D02*
X23510857Y-29916380D01*
X23320380Y-29916380D01*
X23225142Y-29868761D01*
X23177523Y-29773523D01*
X23177523Y-29392571D01*
X23225142Y-29297333D01*
X23320380Y-29249714D01*
X23510857Y-29249714D01*
X23606095Y-29297333D01*
X23653714Y-29392571D01*
X23653714Y-29487809D01*
X23177523Y-29583047D01*
X25415619Y-29821142D02*
X25368000Y-29868761D01*
X25225142Y-29916380D01*
X25129904Y-29916380D01*
X24987047Y-29868761D01*
X24891809Y-29773523D01*
X24844190Y-29678285D01*
X24796571Y-29487809D01*
X24796571Y-29344952D01*
X24844190Y-29154476D01*
X24891809Y-29059238D01*
X24987047Y-28964000D01*
X25129904Y-28916380D01*
X25225142Y-28916380D01*
X25368000Y-28964000D01*
X25415619Y-29011619D01*
X26225142Y-29868761D02*
X26129904Y-29916380D01*
X25939428Y-29916380D01*
X25844190Y-29868761D01*
X25796571Y-29773523D01*
X25796571Y-29392571D01*
X25844190Y-29297333D01*
X25939428Y-29249714D01*
X26129904Y-29249714D01*
X26225142Y-29297333D01*
X26272761Y-29392571D01*
X26272761Y-29487809D01*
X25796571Y-29583047D01*
X26844190Y-29916380D02*
X26748952Y-29868761D01*
X26701333Y-29773523D01*
X26701333Y-28916380D01*
X27368000Y-29916380D02*
X27272761Y-29868761D01*
X27225142Y-29773523D01*
X27225142Y-28916380D01*
D11*
X34718857Y-19530190D02*
X34718857Y-19030190D01*
X34885523Y-19387333D01*
X35052190Y-19030190D01*
X35052190Y-19530190D01*
X35576000Y-19482571D02*
X35552190Y-19506380D01*
X35480761Y-19530190D01*
X35433142Y-19530190D01*
X35361714Y-19506380D01*
X35314095Y-19458761D01*
X35290285Y-19411142D01*
X35266476Y-19315904D01*
X35266476Y-19244476D01*
X35290285Y-19149238D01*
X35314095Y-19101619D01*
X35361714Y-19054000D01*
X35433142Y-19030190D01*
X35480761Y-19030190D01*
X35552190Y-19054000D01*
X35576000Y-19077809D01*
X35790285Y-19530190D02*
X35790285Y-19030190D01*
X35980761Y-19030190D01*
X36028380Y-19054000D01*
X36052190Y-19077809D01*
X36076000Y-19125428D01*
X36076000Y-19196857D01*
X36052190Y-19244476D01*
X36028380Y-19268285D01*
X35980761Y-19292095D01*
X35790285Y-19292095D01*
X36242666Y-19030190D02*
X36576000Y-19030190D01*
X36361714Y-19530190D01*
X36718857Y-19030190D02*
X37028380Y-19030190D01*
X36861714Y-19220666D01*
X36933142Y-19220666D01*
X36980761Y-19244476D01*
X37004571Y-19268285D01*
X37028380Y-19315904D01*
X37028380Y-19434952D01*
X37004571Y-19482571D01*
X36980761Y-19506380D01*
X36933142Y-19530190D01*
X36790285Y-19530190D01*
X36742666Y-19506380D01*
X36718857Y-19482571D01*
X37314095Y-19244476D02*
X37266476Y-19220666D01*
X37242666Y-19196857D01*
X37218857Y-19149238D01*
X37218857Y-19125428D01*
X37242666Y-19077809D01*
X37266476Y-19054000D01*
X37314095Y-19030190D01*
X37409333Y-19030190D01*
X37456952Y-19054000D01*
X37480761Y-19077809D01*
X37504571Y-19125428D01*
X37504571Y-19149238D01*
X37480761Y-19196857D01*
X37456952Y-19220666D01*
X37409333Y-19244476D01*
X37314095Y-19244476D01*
X37266476Y-19268285D01*
X37242666Y-19292095D01*
X37218857Y-19339714D01*
X37218857Y-19434952D01*
X37242666Y-19482571D01*
X37266476Y-19506380D01*
X37314095Y-19530190D01*
X37409333Y-19530190D01*
X37456952Y-19506380D01*
X37480761Y-19482571D01*
X37504571Y-19434952D01*
X37504571Y-19339714D01*
X37480761Y-19292095D01*
X37456952Y-19268285D01*
X37409333Y-19244476D01*
X37671238Y-19030190D02*
X37980761Y-19030190D01*
X37814095Y-19220666D01*
X37885523Y-19220666D01*
X37933142Y-19244476D01*
X37956952Y-19268285D01*
X37980761Y-19315904D01*
X37980761Y-19434952D01*
X37956952Y-19482571D01*
X37933142Y-19506380D01*
X37885523Y-19530190D01*
X37742666Y-19530190D01*
X37695047Y-19506380D01*
X37671238Y-19482571D01*
X38171238Y-19077809D02*
X38195047Y-19054000D01*
X38242666Y-19030190D01*
X38361714Y-19030190D01*
X38409333Y-19054000D01*
X38433142Y-19077809D01*
X38456952Y-19125428D01*
X38456952Y-19173047D01*
X38433142Y-19244476D01*
X38147428Y-19530190D01*
X38456952Y-19530190D01*
D12*
%TO.C,Rprog*%
X32569285Y-24399904D02*
X32302619Y-24018952D01*
X32112142Y-24399904D02*
X32112142Y-23599904D01*
X32416904Y-23599904D01*
X32493095Y-23638000D01*
X32531190Y-23676095D01*
X32569285Y-23752285D01*
X32569285Y-23866571D01*
X32531190Y-23942761D01*
X32493095Y-23980857D01*
X32416904Y-24018952D01*
X32112142Y-24018952D01*
X32912142Y-23866571D02*
X32912142Y-24666571D01*
X32912142Y-23904666D02*
X32988333Y-23866571D01*
X33140714Y-23866571D01*
X33216904Y-23904666D01*
X33255000Y-23942761D01*
X33293095Y-24018952D01*
X33293095Y-24247523D01*
X33255000Y-24323714D01*
X33216904Y-24361809D01*
X33140714Y-24399904D01*
X32988333Y-24399904D01*
X32912142Y-24361809D01*
X33635952Y-24399904D02*
X33635952Y-23866571D01*
X33635952Y-24018952D02*
X33674047Y-23942761D01*
X33712142Y-23904666D01*
X33788333Y-23866571D01*
X33864523Y-23866571D01*
X34245476Y-24399904D02*
X34169285Y-24361809D01*
X34131190Y-24323714D01*
X34093095Y-24247523D01*
X34093095Y-24018952D01*
X34131190Y-23942761D01*
X34169285Y-23904666D01*
X34245476Y-23866571D01*
X34359761Y-23866571D01*
X34435952Y-23904666D01*
X34474047Y-23942761D01*
X34512142Y-24018952D01*
X34512142Y-24247523D01*
X34474047Y-24323714D01*
X34435952Y-24361809D01*
X34359761Y-24399904D01*
X34245476Y-24399904D01*
X35197857Y-23866571D02*
X35197857Y-24514190D01*
X35159761Y-24590380D01*
X35121666Y-24628476D01*
X35045476Y-24666571D01*
X34931190Y-24666571D01*
X34855000Y-24628476D01*
X35197857Y-24361809D02*
X35121666Y-24399904D01*
X34969285Y-24399904D01*
X34893095Y-24361809D01*
X34855000Y-24323714D01*
X34816904Y-24247523D01*
X34816904Y-24018952D01*
X34855000Y-23942761D01*
X34893095Y-23904666D01*
X34969285Y-23866571D01*
X35121666Y-23866571D01*
X35197857Y-23904666D01*
D10*
%TO.C,Rled*%
X37647666Y-25852380D02*
X37314333Y-25376190D01*
X37076238Y-25852380D02*
X37076238Y-24852380D01*
X37457190Y-24852380D01*
X37552428Y-24900000D01*
X37600047Y-24947619D01*
X37647666Y-25042857D01*
X37647666Y-25185714D01*
X37600047Y-25280952D01*
X37552428Y-25328571D01*
X37457190Y-25376190D01*
X37076238Y-25376190D01*
X38219095Y-25852380D02*
X38123857Y-25804761D01*
X38076238Y-25709523D01*
X38076238Y-24852380D01*
X38981000Y-25804761D02*
X38885761Y-25852380D01*
X38695285Y-25852380D01*
X38600047Y-25804761D01*
X38552428Y-25709523D01*
X38552428Y-25328571D01*
X38600047Y-25233333D01*
X38695285Y-25185714D01*
X38885761Y-25185714D01*
X38981000Y-25233333D01*
X39028619Y-25328571D01*
X39028619Y-25423809D01*
X38552428Y-25519047D01*
X39885761Y-25852380D02*
X39885761Y-24852380D01*
X39885761Y-25804761D02*
X39790523Y-25852380D01*
X39600047Y-25852380D01*
X39504809Y-25804761D01*
X39457190Y-25757142D01*
X39409571Y-25661904D01*
X39409571Y-25376190D01*
X39457190Y-25280952D01*
X39504809Y-25233333D01*
X39600047Y-25185714D01*
X39790523Y-25185714D01*
X39885761Y-25233333D01*
%TO.C,D1*%
X27201904Y-20645380D02*
X27201904Y-19645380D01*
X27440000Y-19645380D01*
X27582857Y-19693000D01*
X27678095Y-19788238D01*
X27725714Y-19883476D01*
X27773333Y-20073952D01*
X27773333Y-20216809D01*
X27725714Y-20407285D01*
X27678095Y-20502523D01*
X27582857Y-20597761D01*
X27440000Y-20645380D01*
X27201904Y-20645380D01*
X28725714Y-20645380D02*
X28154285Y-20645380D01*
X28440000Y-20645380D02*
X28440000Y-19645380D01*
X28344761Y-19788238D01*
X28249523Y-19883476D01*
X28154285Y-19931095D01*
%TO.C,D2*%
X31991904Y-28138380D02*
X31991904Y-27138380D01*
X32230000Y-27138380D01*
X32372857Y-27186000D01*
X32468095Y-27281238D01*
X32515714Y-27376476D01*
X32563333Y-27566952D01*
X32563333Y-27709809D01*
X32515714Y-27900285D01*
X32468095Y-27995523D01*
X32372857Y-28090761D01*
X32230000Y-28138380D01*
X31991904Y-28138380D01*
X32944285Y-27233619D02*
X32991904Y-27186000D01*
X33087142Y-27138380D01*
X33325238Y-27138380D01*
X33420476Y-27186000D01*
X33468095Y-27233619D01*
X33515714Y-27328857D01*
X33515714Y-27424095D01*
X33468095Y-27566952D01*
X32896666Y-28138380D01*
X33515714Y-28138380D01*
%TO.C,C2*%
X39584333Y-19280142D02*
X39536714Y-19327761D01*
X39393857Y-19375380D01*
X39298619Y-19375380D01*
X39155761Y-19327761D01*
X39060523Y-19232523D01*
X39012904Y-19137285D01*
X38965285Y-18946809D01*
X38965285Y-18803952D01*
X39012904Y-18613476D01*
X39060523Y-18518238D01*
X39155761Y-18423000D01*
X39298619Y-18375380D01*
X39393857Y-18375380D01*
X39536714Y-18423000D01*
X39584333Y-18470619D01*
X39965285Y-18470619D02*
X40012904Y-18423000D01*
X40108142Y-18375380D01*
X40346238Y-18375380D01*
X40441476Y-18423000D01*
X40489095Y-18470619D01*
X40536714Y-18565857D01*
X40536714Y-18661095D01*
X40489095Y-18803952D01*
X39917666Y-19375380D01*
X40536714Y-19375380D01*
D12*
%TO.C,U1*%
X36118857Y-18213428D02*
X36118857Y-18699142D01*
X36147428Y-18756285D01*
X36176000Y-18784857D01*
X36233142Y-18813428D01*
X36347428Y-18813428D01*
X36404571Y-18784857D01*
X36433142Y-18756285D01*
X36461714Y-18699142D01*
X36461714Y-18213428D01*
X37061714Y-18813428D02*
X36718857Y-18813428D01*
X36890285Y-18813428D02*
X36890285Y-18213428D01*
X36833142Y-18299142D01*
X36776000Y-18356285D01*
X36718857Y-18384857D01*
D10*
%TO.C,C1*%
X33234333Y-19661142D02*
X33186714Y-19708761D01*
X33043857Y-19756380D01*
X32948619Y-19756380D01*
X32805761Y-19708761D01*
X32710523Y-19613523D01*
X32662904Y-19518285D01*
X32615285Y-19327809D01*
X32615285Y-19184952D01*
X32662904Y-18994476D01*
X32710523Y-18899238D01*
X32805761Y-18804000D01*
X32948619Y-18756380D01*
X33043857Y-18756380D01*
X33186714Y-18804000D01*
X33234333Y-18851619D01*
X34186714Y-19756380D02*
X33615285Y-19756380D01*
X33901000Y-19756380D02*
X33901000Y-18756380D01*
X33805761Y-18899238D01*
X33710523Y-18994476D01*
X33615285Y-19042095D01*
D13*
%TO.C,J1*%
X19512500Y-28318000D02*
X21187500Y-28318000D01*
X19461000Y-27850000D02*
X19512500Y-28318000D01*
X19524500Y-19682000D02*
X19397500Y-20150000D01*
X19575000Y-19682000D02*
X21125000Y-19682000D01*
%TO.C,Rprog*%
X34727064Y-26691000D02*
X33272936Y-26691000D01*
X34727064Y-24871000D02*
X33272936Y-24871000D01*
%TO.C,Rled*%
X37444000Y-29175064D02*
X37444000Y-27720936D01*
X39264000Y-29175064D02*
X39264000Y-27720936D01*
%TO.C,D1*%
X26781760Y-21107400D02*
X26416000Y-21107400D01*
X25440000Y-23614000D02*
X25313000Y-24376000D01*
X29098240Y-26644600D02*
X29464000Y-26644600D01*
X25440000Y-23614000D02*
X25948000Y-24376000D01*
X25440000Y-23614000D02*
X25821000Y-24376000D01*
X25440000Y-23614000D02*
X24805000Y-24376000D01*
X25440000Y-23614000D02*
X24932000Y-24376000D01*
X25440000Y-23614000D02*
X25567000Y-24376000D01*
X29464000Y-21107400D02*
X29098240Y-21107400D01*
X29464000Y-26644600D02*
X29464000Y-21107400D01*
X25440000Y-24630000D02*
X25440000Y-23360000D01*
X25440000Y-23614000D02*
X25059000Y-24376000D01*
X26416000Y-21107400D02*
X26416000Y-26644600D01*
X25440000Y-23614000D02*
X26075000Y-24376000D01*
X26075000Y-23614000D02*
X24805000Y-23614000D01*
X25440000Y-23614000D02*
X25694000Y-24376000D01*
X26075000Y-24376000D02*
X24805000Y-24376000D01*
X26416000Y-26644600D02*
X26781760Y-26644600D01*
X25440000Y-23614000D02*
X25186000Y-24376000D01*
%TO.C,D2*%
X34385085Y-31305500D02*
X33623085Y-31686500D01*
X34385085Y-31305500D02*
X33623085Y-30797500D01*
X34385085Y-31305500D02*
X33623085Y-31559500D01*
X34385085Y-31305500D02*
X33623085Y-31813500D01*
X33623085Y-31940500D02*
X33623085Y-30670500D01*
X34385085Y-31305500D02*
X33623085Y-31432500D01*
X33369085Y-31305500D02*
X34639085Y-31305500D01*
X34385085Y-31305500D02*
X33623085Y-30924500D01*
X34385085Y-31305500D02*
X33623085Y-31051500D01*
X34385085Y-31305500D02*
X33623085Y-30670500D01*
X34385085Y-31305500D02*
X33623085Y-31178500D01*
X34385085Y-31305500D02*
X33623085Y-31940500D01*
X36285000Y-30599000D02*
X36285000Y-28329000D01*
X36285000Y-28329000D02*
X32400000Y-28329000D01*
X34385085Y-31940500D02*
X34385085Y-30670500D01*
X32400000Y-30599000D02*
X36285000Y-30599000D01*
%TO.C,C2*%
X40261000Y-20864420D02*
X40261000Y-21145580D01*
X39241000Y-20864420D02*
X39241000Y-21145580D01*
D14*
%TO.C,U1*%
X37456000Y-19930000D02*
X35696000Y-19930000D01*
X37456000Y-23070000D02*
X35696000Y-23070000D01*
D15*
X39176000Y-22500000D02*
G75*
G03*
X39176000Y-22500000I-100000J0D01*
G01*
D13*
%TO.C,J4*%
X47184000Y-19812000D02*
X47184000Y-18482000D01*
X47184000Y-21082000D02*
X47184000Y-31302000D01*
X47184000Y-21082000D02*
X49844000Y-21082000D01*
X47184000Y-18482000D02*
X48514000Y-18482000D01*
X47184000Y-31302000D02*
X49844000Y-31302000D01*
X49844000Y-21082000D02*
X49844000Y-31302000D01*
%TO.C,C1*%
X33911000Y-21232420D02*
X33911000Y-21513580D01*
X32891000Y-21232420D02*
X32891000Y-21513580D01*
%TD*%
M02*
